<?xml version="1.0" encoding="UTF-8" standalone="no"?>
<svg width="160px" height="76px" viewBox="0 0 160 76" version="1.1" xmlns="http://www.w3.org/2000/svg" xmlns:xlink="http://www.w3.org/1999/xlink" xmlns:sketch="http://www.bohemiancoding.com/sketch/ns">
    <!-- Generator: Sketch 3.4 (15575) - http://www.bohemiancoding.com/sketch -->
    <title>Page 1 Copy 2</title>
    <desc>Created with Sketch.</desc>
    <defs>
        <path id="path-1" d="M0,0.116576271 L159.60996,0.116576271 L159.60996,76 L0,76"></path>
        <path id="path-3" d="M0,0.116576271 L159.60996,0.116576271 L159.60996,76 L0,76"></path>
    </defs>
    <g id="Boostrap-3-Grid" stroke="none" stroke-width="1" fill="none" fill-rule="evenodd" sketch:type="MSPage">
        <g id="Large-Desktop-Home-Copy-25" sketch:type="MSArtboardGroup" transform="translate(-91.000000, -37.000000)">
            <g id="Page-1-Copy-2" sketch:type="MSLayerGroup" transform="translate(91.000000, 37.000000)">
                <path d="M107.941141,30.6099017 C113.480096,32.3501729 115.215679,20.086478 116.042667,14.0367492 C113.893269,13.6232576 111.412948,13.0429525 109.511582,12.5457322 C109.346442,15.1973593 108.767486,20.5830542 108.024032,21.6605797 L107.941141,30.6099017 Z" id="Fill-1" fill="#FFFFFF" sketch:type="MSShapeGroup"></path>
                <path d="M133.568643,17.3517661 C133.568643,20.3344441 133.485751,21.2458 133.32061,22.0753593 C135.883823,21.9091898 141.256996,21.7436644 144.646554,21.9091898 C146.879486,22.0753593 147.705189,23.1515966 147.705189,25.8038678 C147.705189,29.6985458 146.879486,34.0898 146.216996,35.9955966 C155.310651,35.8300712 159.857478,28.2893254 158.452177,12.1309525 C158.452177,12.1309525 154.07049,12.4632915 151.259888,12.4632915 L140.348402,12.4632915 L140.26551,12.4632915 C137.371373,12.4632915 134.229847,12.4632915 133.32061,12.297122 C133.485751,13.208478 133.568643,15.1142746 133.568643,17.3517661" id="Fill-3" fill="#FFFFFF" sketch:type="MSShapeGroup"></path>
                <path d="M90.5801124,34.5868915 C90.5801124,28.1236712 88.3484659,22.9865864 84.0490281,18.0974678 C83.8016386,23.0690271 80.825253,29.6984169 80.825253,34.8355017 C80.825253,37.9843492 81.9825221,40.3042814 85.1240482,40.3042814 C88.8438876,40.3042814 90.5801124,38.3154 90.5801124,34.5868915" id="Fill-5" fill="#FFFFFF" sketch:type="MSShapeGroup"></path>
                <g id="Group-9">
                    <mask id="mask-2" sketch:name="Clip 8" fill="white">
                        <use xlink:href="#path-1"></use>
                    </mask>
                    <g id="Clip-8"></g>
                    <path d="M131.914538,6.66268814 C131.99743,5.66824746 133.238233,5.66824746 134.14747,5.66824746 C134.14747,4.92241695 134.395502,2.02217966 134.561285,1.19326441 C131.75004,1.11082373 123.814297,0.447433898 119.762249,0.116383051 C119.762249,9.31367119 115.546345,32.8466203 111.329799,37.9843492 C121.912289,37.9843492 128.194699,36.9074678 131.914538,6.66268814" id="Fill-7" fill="#FFFFFF" sketch:type="MSShapeGroup" mask="url(#mask-2)"></path>
                </g>
                <path d="M120.424482,54.1419492 C120.424482,49.6676102 115.959904,45.2763559 107.858378,45.2763559 C107.858378,54.4749322 107.445205,61.6820508 113.645365,61.6820508 C117.61388,61.6820508 120.424482,59.0317119 120.424482,54.1419492" id="Fill-10" fill="#FFFFFF" sketch:type="MSShapeGroup"></path>
                <path d="M108.436562,0.613216949 C108.436562,0.613216949 104.30355,0.779386441 100.004755,0.779386441 C96.5329478,0.779386441 91.7374458,0.613216949 91.7374458,0.613216949 C91.8203373,3.09931864 91.9861205,19.0921661 91.9861205,27.2125729 C91.9861205,52.9823695 89.0097349,67.2343017 82.7273253,75.188539 C101.327807,77.0962678 105.873992,62.5937932 105.873992,36.3267763 L105.873992,10.5563356 C105.873992,7.4081322 106.535197,5.66850508 107.693108,5.66850508 L108.436562,5.66850508 C108.354313,4.50789492 108.354313,1.77382712 108.436562,0.613216949" id="Fill-12" fill="#FFFFFF" sketch:type="MSShapeGroup"></path>
                <path d="M143.654618,27.1294881 C140.182811,27.3780983 132.824739,27.2950136 128.940402,26.9633186 C128.940402,29.6155898 129.022008,32.1841322 128.85751,34.4216237 C127.781847,46.6015898 122.986988,61.5175559 112.074859,74.6919627 C122.821847,76.433522 129.27004,73.117861 135.139277,63.0085729 C139.438072,55.5515559 142.827631,43.9499627 143.323695,34.0899288 C143.406586,31.8524373 143.654618,28.7042339 143.654618,27.1294881" id="Fill-14" fill="#FFFFFF" sketch:type="MSShapeGroup"></path>
                <path d="M142.414008,50.8278983 C141.587663,53.8112203 140.512643,57.3742034 139.438265,59.8590169 C139.438265,69.8865085 145.969349,76.8463051 154.566297,75.106678 C155.310394,72.2057966 155.972241,69.140678 156.633446,67.8151864 C157.625574,65.5764068 158.617703,64.8325085 159.609831,64.334 C151.673446,60.192 147.291759,55.9649831 142.414008,50.8278983" id="Fill-16" fill="#FFFFFF" sketch:type="MSShapeGroup"></path>
                <path d="M54.8927229,21.4756034 C56.8769799,21.4756034 57.9513574,22.7186542 57.9513574,25.3702814 C57.9513574,31.4193661 57.6204337,33.5744169 57.6204337,33.5744169 C57.6204337,33.5744169 61.6711968,33.4082475 66.1351325,33.4082475 C71.7569799,33.4082475 73.7418795,33.4082475 74.2366586,33.4913322 C73.9892691,32.7448576 73.7418795,29.4311288 73.7418795,23.6306542 C73.7418795,19.9845864 74.0721606,10.0408237 74.0721606,10.0408237 C70.9306345,10.2894339 65.8048514,10.3725186 60.018506,10.3725186 C56.3802731,10.3725186 53.1571406,10.3725186 51.4202731,10.2069932 C51.5860562,11.4500441 51.6683052,14.3502814 51.6683052,16.4216034 C51.6683052,16.7526542 51.5860562,20.7304169 51.4202731,21.6417729 C52.9084659,21.5586881 53.8177028,21.4756034 54.8927229,21.4756034" id="Fill-18" fill="#FFFFFF" sketch:type="MSShapeGroup"></path>
                <path d="M36.5398876,26.2816373 C30.0094458,26.2816373 25.4626185,26.2816373 21.3289639,26.1161119 C21.4941044,27.1936373 21.576996,29.9277051 21.576996,30.5910949 C21.576996,31.5024508 21.4941044,34.6506542 21.3289639,35.6450949 C22.9000482,35.4802136 27.3639839,35.3140441 32.8200482,35.3140441 C34.9694458,35.3140441 35.6306506,36.8057051 35.6306506,38.0487559 C35.6306506,39.4566881 35.6306506,40.120078 34.2253494,41.9434339 C49.105992,41.9434339 53.4870361,37.8825864 53.4870361,26.0336712 C51.090249,26.1991966 45.5512932,26.2816373 36.5398876,26.2816373" id="Fill-20" fill="#FFFFFF" sketch:type="MSShapeGroup"></path>
                <path d="M54.4791647,44.8438644 L53.4041446,44.7607797 L53.4041446,54.6208136 L54.4791647,54.6208136 C62.0846265,54.6208136 72.5006908,54.9518644 75.5606104,55.118678 C75.3948273,54.206678 75.3119357,52.3008814 75.3119357,50.1464746 C75.3119357,47.9089831 75.3948273,45.5890508 75.5606104,44.5121695 C72.5006908,44.6770508 62.0846265,44.8438644 54.4791647,44.8438644" id="Fill-22" fill="#FFFFFF" sketch:type="MSShapeGroup"></path>
                <g id="Group-26">
                    <mask id="mask-4" sketch:name="Clip 25" fill="white">
                        <use xlink:href="#path-3"></use>
                    </mask>
                    <g id="Clip-25"></g>
                    <path d="M27.7764498,44.4293424 C17.6084177,44.4293424 4.21596787,44.2625288 6.42570281e-05,44.0970034 C0.16584739,45.0914441 0.248096386,47.6612746 0.248096386,49.7313085 C0.248096386,53.3786644 0.16584739,54.6204271 6.42570281e-05,54.7041559 C4.58737349,54.5502237 19.1370924,54.1148339 30.2574137,54.1811729 L30.2574137,55.6979525 C30.2574137,60.5046305 28.6863293,62.4935119 25.8750843,62.4935119 C23.0644819,62.4935119 22.2381365,61.7476814 21.7420723,61.2491729 C21.5769317,61.9950034 20.9986185,63.5703932 20.9986185,67.0496475 C20.9986185,72.4359864 25.2967711,76.0002576 33.8943614,76.0002576 C46.1295422,76.0002576 48.3618313,66.3051051 48.3618313,61.5815119 L48.3618313,50.7257492 C48.3618313,49.5670712 48.775004,48.986122 49.9322731,48.986122 C49.9322731,48.4889017 49.8500241,47.8255119 49.8500241,46.6668339 C49.8500241,45.3400542 49.8500241,44.3462576 49.9322731,44.0970034 C47.7828755,44.4293424 34.7213494,44.4293424 27.7764498,44.4293424" id="Fill-24" fill="#FFFFFF" sketch:type="MSShapeGroup" mask="url(#mask-4)"></path>
                </g>
                <path d="M30.4009639,21.2278305 L46.7074699,21.2278305 L46.7074699,12.6102034 C46.791004,9.87549153 46.791004,7.88725424 46.791004,7.88725424 C46.791004,6.72664407 47.2041767,6.14698305 48.3614458,6.14698305 C48.2785542,5.81528814 48.2785542,1.58891525 48.3614458,1.25786441 C45.9646586,1.4240339 42.9876305,1.4240339 39.4335743,1.4240339 C35.1354217,1.4240339 32.90249,1.4240339 30.1741365,1.25786441 C30.3964659,4.15294915 30.4947791,7.14722034 30.4787149,10.2593559 C30.4787149,14.5321017 30.4009639,21.2278305 30.4009639,21.2278305" id="Fill-27" fill="#FFFFFF" sketch:type="MSShapeGroup"></path>
                <path d="M8.83913253,33.4085051 C13.3030683,33.4085051 17.3538313,33.5746746 17.3538313,33.5746746 C17.3538313,33.5746746 17.0229076,31.4196237 17.0229076,25.370539 C17.0229076,22.7189119 18.0972851,21.475861 20.0815422,21.475861 C21.1565622,21.475861 23.3509398,21.5589458 24.8391325,21.6420305 C24.673992,20.7306746 24.5911004,16.7529119 24.5911004,16.421861 C24.5911004,14.350539 24.673992,11.4503017 24.8391325,10.2072508 C23.1022651,10.3727763 18.593992,10.3727763 14.9564016,10.3727763 C9.16941365,10.3727763 4.04363052,10.2890475 0.902104418,10.0410814 C0.902104418,10.0410814 1.23238554,19.9848441 1.23238554,23.6309119 C1.23238554,29.4313864 0.984995984,32.7451153 0.737606426,33.4915898 C1.23238554,33.4085051 3.21728514,33.4085051 8.83913253,33.4085051" id="Fill-29" fill="#FFFFFF" sketch:type="MSShapeGroup"></path>
            </g>
        </g>
    </g>
</svg>